HIERARCHY
ROOT Hips
{
    OFFSET 10.92974853515625 89.33444213867188 -17.970176696777344
    CHANNELS 6 Xposition Yposition Zposition Zrotation Xrotation Yrotation
    JOINT RightUpLeg
    {
        OFFSET -10.92974853515625 0.0 0.0
        CHANNELS 3 Zrotation Xrotation Yrotation
        JOINT RightLeg
        {
            OFFSET 0.0 -44.40900421142578 0.0
            CHANNELS 3 Zrotation Xrotation Yrotation
            JOINT RightFoot
            {
                OFFSET 0.0 -44.925437927246094 0.0
                CHANNELS 3 Zrotation Xrotation Yrotation
                End Site
                {
                    OFFSET 0.0 0.0 17.970176696777344
                }
            }
        }
    }
    JOINT LeftUpLeg
    {
        OFFSET 10.92974853515625 0.0 0.0
        CHANNELS 3 Zrotation Xrotation Yrotation
        JOINT LeftLeg
        {
            OFFSET 0.0 -44.40900421142578 0.0
            CHANNELS 3 Zrotation Xrotation Yrotation
            JOINT LeftFoot
            {
                OFFSET 0.0 -44.925437927246094 0.0
                CHANNELS 3 Zrotation Xrotation Yrotation
                End Site
                {
                    OFFSET 0.0 0.0 17.970176696777344
                }
            }
        }
    }
    JOINT Spine
    {
        OFFSET 0.0 23.415491104125977 0.0
        CHANNELS 3 Zrotation Xrotation Yrotation
        JOINT Spine3
        {
            OFFSET 0.0 24.562986373901367 0.0
            CHANNELS 3 Zrotation Xrotation Yrotation
            JOINT Neck
            {
                OFFSET 0.0 10.705317497253418 0.0
                CHANNELS 3 Zrotation Xrotation Yrotation
                End Site
                {
                    OFFSET 0.0 4.2821269035339355 0.0
                }
            }
            JOINT LeftArm
            {
                OFFSET 12.609672546386719 0.0 0.0
                CHANNELS 3 Zrotation Xrotation Yrotation
                JOINT LeftForeArm
                {
                    OFFSET 25.73038101196289 0.0 0.0
                    CHANNELS 3 Zrotation Xrotation Yrotation
                    JOINT LeftHand
                    {
                        OFFSET 18.84522247314453 0.0 0.0
                        CHANNELS 3 Zrotation Xrotation Yrotation
                        End Site
                        {
                            OFFSET 7.538088798522949 0.0 0.0
                        }
                    }
                }
            }
            JOINT RightArm
            {
                OFFSET -12.609672546386719 0.0 0.0
                CHANNELS 3 Zrotation Xrotation Yrotation
                JOINT RightForeArm
                {
                    OFFSET -25.73038101196289 0.0 0.0
                    CHANNELS 3 Zrotation Xrotation Yrotation
                    JOINT RightHand
                    {
                        OFFSET -18.84522247314453 0.0 0.0
                        CHANNELS 3 Zrotation Xrotation Yrotation
                        End Site
                        {
                            OFFSET -7.538088798522949 0.0 0.0
                        }
                    }
                }
            }
        }
    }
}
MOTION
Frames: 6
Frame Time: 0.03333333333333333
0.00017452894826419652 88.34830474853516 -0.0010182654950767756 -3.7554372591309404 -7.50699012837706 -17.87351789974926 3.2495690900949317 17.99395370166141 -1.3908182973154923 0.36496454646680565 8.746917761380246 -0.7059653500941533 7.951386703658792e-16 -9.93923337957349e-17 2.981770013872047e-16 -1.5106485267185252 18.437111624746546 0.07427319030556546 -2.1821620180213523 9.108397909385248 0.37997330677179364 1.142270672835246e-33 -4.9696166897867443e-17 2.6338968455869743e-15 1.1652462588536403 20.71680564270372 -0.8583727273206263 3.7158554594167394e-07 -6.444747688003036e-07 -3.355624270313331 6.292652225062733 7.151691631958714 -179.07075938850704 112.57545484781217 -24.005850699120174 -175.72384773951413 -9.04101698798628e-07 -6.5088613864653785e-06 21.45519267645925 -6.361109362927032e-15 3.1805546814635164e-15 -6.361109362927032e-15 -112.00245763387589 -21.952438037640192 174.56694320689863 -3.3390506487468773e-06 -1.906397245341746e-06 -29.85570970222229 8.945310041616139e-15 0.0 0.0
0.00018349055608268827 88.34827423095703 -0.0010120184160768986 -3.7658657524439043 -7.439414201367364 -17.80039893838319 3.328597850289916 17.780333518984545 -1.3373761289340633 0.2831033243226245 8.8600885644606 -0.6851195552867504 -7.951386703658792e-16 4.827710013492361e-33 -6.957463365701443e-16 -1.4709068273017043 18.41205379096314 0.12536727444248652 -2.08208741792701 9.303364799926724 0.39673309494446723 1.9878466759146975e-16 -7.758819664541295e-34 -4.47265502080807e-16 1.243432523837762 20.65769239108919 -0.8124741386791141 1.6756963022933882e-07 -1.9454030172684345e-07 -3.072170431295587 6.0867517539159826 7.416686076317335 -179.5652385353192 112.4012005615613 -25.420561527513232 -175.598575315801 7.744152350367887e-07 5.706388231228121e-06 21.6515361005906 3.1805546814635164e-15 -3.1805546814635164e-15 8.827812596100317e-32 -111.83099646778409 -23.10927993422615 174.47663824920338 -1.2987728380506095e-06 -2.8153065549369385e-06 -30.033398396105042 2.4848083448933726e-15 0.0 0.0
0.00018266664119437337 88.3482666015625 -0.0010042389621958137 -3.6725529620625124 -7.457447313065516 -17.705297133794275 3.0906567089651027 17.534667321949435 -1.2498157874334352 0.3795179264488356 8.998253302143453 -0.6772348862499167 2.0690185772110117e-32 -2.9817700138720464e-15 7.95138670365879e-16 -1.6078151704263008 18.45690077948496 0.16668207022309753 -2.0152464866669493 9.408534409301495 0.410320967322341 1.987846675914698e-16 -2.5000641141299727e-33 -1.441188840038156e-15 1.306371253601595 20.676606519173205 -0.8381059022267721 -1.3591558771329356e-07 8.066025910163952e-08 -2.723407900264267 5.642590619451201 7.992586672378138 179.79993522060917 111.87943214276852 -26.636229781174926 -175.45955969588266 -2.4008772704263e-06 1.4807301391784171e-06 21.591240706351133 1.5902773407317582e-15 3.1805546814635164e-15 -4.4139062980501586e-32 -111.67887869161164 -23.945591705453786 174.07320022140973 3.7567201693179096e-07 1.3448803068055048e-06 -30.10538205484217 4.174478019420866e-15 1.5902773407317584e-15 -5.793252016190833e-32
0.0002034096687566489 88.34827423095703 -0.0010115084005519748 -3.5833618662898807 -7.475396410644358 -17.76409113958562 2.8006796133508387 17.421001787766215 -1.167516690135642 0.43210654663521664 9.015575927717506 -0.6500173086643953 -1.551763932908259e-33 9.93923337957349e-17 1.7890620083232284e-15 -1.7838082286160915 18.490094816857827 0.2092135254173288 -1.8786346671987326 9.525329615035039 0.4136722669603489 3.975693351829396e-16 4.969616689786745e-17 1.1927080055488188e-15 1.3402046407285326 20.64818181439816 -0.8639942223530314 -1.2966631556008158e-07 -9.338486373802339e-08 -2.555279952669902 5.1384834516327755 8.127775396976014 179.8778881845238 111.43656413952779 -28.148644836792485 -175.4759629679428 -1.2709535604071368e-06 1.8161635482325933e-06 21.70255762976105 -6.361109362927035e-15 -3.1805546814635176e-15 -1.7655625192200634e-31 -111.7797559685502 -26.156682126008743 173.88599154542936 1.707269516309012e-06 1.4338502014744929e-06 -30.358745115014838 -2.1866313435061676e-15 1.5902773407317582e-15 3.034560579909484e-32
0.00019037470337934792 88.34832000732422 -0.0010314732789993286 -3.6083013420967496 -7.451260342444687 -17.669503474486454 2.6725390275579675 17.357174637257906 -1.1452969323910853 0.5628551066132904 8.984252371606717 -0.6594598467910625 7.951386703658792e-16 -1.9310840053969444e-32 -2.782985346280577e-15 -1.6676171810551248 18.419207571240484 0.15018231950520555 -1.6747958831277105 9.653995810398662 0.35562259354248865 3.975693351829396e-16 4.138037154422024e-33 1.1927080055488188e-15 1.5188785869628951 20.604173433296168 -0.9491898089397586 -2.102838076830171e-07 -4.243451043741002e-07 -2.495851348834008 5.010132950839248 8.26057468720763 179.8677772017726 110.92567041481493 -29.121906221061018 -175.53922140384725 -4.5041306561686797e-07 -2.9712037542820585e-06 21.93227233270127 -3.1805546814635164e-15 0.0 0.0 -112.1132882390198 -27.95729249594338 173.5786228693109 -4.792445087909777e-06 -5.853095984946313e-07 -30.716315143016722 4.2241741863187335e-15 1.5902773407317584e-15 -5.862219302097867e-32
0.0001882459328044206 88.34832763671875 -0.0010356568964198232 -3.571968060857058 -7.404609541471881 -17.720503782534664 2.5634192328634926 17.3671945019976 -1.1650496516064432 0.6417650004821653 9.043627682890827 -0.6858518883699555 0.0 0.0 -9.93923337957349e-16 -1.63299269698082 18.456013610186847 0.08464574465851245 -1.8548261432317805 9.840552155814814 0.3594836968814174 -1.987846675914698e-16 2.672482328897557e-33 -1.5405811738338909e-15 1.5830812934899912 20.39765638889732 -1.02296574494235 -2.3169953104155407e-07 7.179145788653203e-07 -2.311277427463692 4.735285101352104 8.166322429376862 179.69977089638581 110.56995546045887 -30.92399950521479 -175.61753793151897 -1.5775066494130768e-06 -1.6449281929003864e-06 22.23770665556482 1.5902773407317582e-15 0.0 0.0 -112.21847558406114 -29.231034388891146 173.607883010556 1.5354800838379475e-06 -3.730815228432848e-07 -30.42434947686095 -1.9381505090168305e-15 1.5902773407317584e-15 2.6897241503743153e-32
